:SAMPLES-PER-SECOND 30
:FULLY-SPECIFIED
:DEGREES
362
root  18.731 33.919 9.46954 -173.531 -3.76007 175.888
RightUpLeg  -12.472 -1.13343 -42.03
RightLeg  13.7973 -20.0337 -6.79248
RightFoot  27.1816 -9.7523 28.2753
RightToes  -5.8209e-011 0 -3.6325e-017
Spine  22.9972 0.0194049 17.059
Spine1  -9.07095 4.74295 -12.1722
HEad  -25.9482 -20.8318 -4.31931
LeftShoulder1  1.48984 -2.76212 -17.1075
LeftArm  18.2613 12.8864 -50.932
LeftForeArm  23.645 -71.7412 -34.718
LeftHand  -1.16096 -0.674876 22.1954
RightShoulder  0.627047 -0.0425107 10.9817
RightArm  -50.1529 -9.56668 28.5919
RightForeArm  -7.20044 1.23112 -2.47192
RightHand  -2.15438 5.64469 -22.6753
LeftUpLeg  -9.50976 10.6128 31.744
LeftLeg  10.6865 -6.22929 1.19534
LeftFoot  4.91821 4.97986 -34.2812
LeftToes  -3.91115e-011 -2.2622e-010 9.51032e-012
363
root  20.3111 33.0885 9.85614 -175.707 -3.02802 176.641
RightUpLeg  -14.1566 -2.72122 -40.6885
RightLeg  20.5149 -16.9282 -6.85529
RightFoot  16.0756 -9.79776 39.3403
RightToes  -5.8209e-011 0 -3.6325e-017
Spine  27.7485 -2.27931 22.6759
Spine1  -9.94202 4.77316 -14.4394
HEad  -27.7302 -18.7841 -5.64115
LeftShoulder1  1.56451 -2.9074 -17.7765
LeftArm  15.3477 17.2967 -50.0668
LeftForeArm  24.3234 -72.1869 -35.8829
LeftHand  -1.16397 -0.730809 22.0541
RightShoulder  0.322808 -1.03258 5.19408
RightArm  -51.5261 4.92434 25.2039
RightForeArm  -3.0032 1.49145 -2.74933
RightHand  -2.47761 6.48435 -24.1878
LeftUpLeg  -10.1692 3.24839 34.9081
LeftLeg  19.2871 -5.10358 -1.94796
LeftFoot  -3.05078 2.79717 -36.9709
LeftToes  -3.91115e-011 -2.2622e-010 9.51032e-012
364
root  21.8055 32.0825 10.5465 -175.595 -0.747101 174.857
RightUpLeg  -21.5174 -7.77958 -40.9994
RightLeg  30.8109 -10.2658 -6.80429
RightFoot  4.78003 -6.9322 46.2348
RightToes  -5.8209e-011 0 -3.6325e-017
Spine  30.2452 -3.11 23.2497
Spine1  -8.38823 4.93838 -13.6858
HEad  -29.5049 -15.2456 -8.04084
LeftShoulder1  1.74756 -3.56923 -18.1262
LeftArm  13.4009 19.1064 -50.6407
LeftForeArm  27.0919 -72.8398 -37.2952
LeftHand  -1.22774 -1.06711 22.0527
RightShoulder  0.0775344 -2.44668 -1.58591
RightArm  -53.1444 22.4191 20.628
RightForeArm  1.36575 5.81986 -1.02558
RightHand  -2.75116 7.36808 -24.9652
LeftUpLeg  -13.5875 3.18604 33.5724
LeftLeg  28.9696 -8.38016 -4.62571
LeftFoot  -10.2091 0.447165 -36.4315
LeftToes  -3.91115e-011 -2.2622e-010 9.51032e-012
365
root  23.1277 31.2572 11.3273 -173.103 3.74113 172.821
RightUpLeg  -33.3005 -6.9919 -41.4787
RightLeg  40.4847 -7.56413 -7.18236
RightFoot  0.158499 -5.00092 46.9425
RightToes  -5.8209e-011 0 -3.6325e-017
Spine  32.752 -2.78871 22.89
Spine1  -7.50231 6.16194 -13.8558
HEad  -31.5934 -11.5735 -10.702
LeftShoulder1  1.94474 -4.65544 -17.1903
LeftArm  12.4572 19.6612 -53.1757
LeftForeArm  30.3705 -73.5737 -39.0809
LeftHand  -1.32288 -1.38978 22.627
RightShoulder  -0.013623 -4.24686 -7.37869
RightArm  -55.6615 36.4489 11.1162
RightForeArm  4.24478 18.4874 3.66023
RightHand  -2.93216 7.87005 -25.5795
LeftUpLeg  -18.0988 5.46859 31.4017
LeftLeg  36.9873 -6.88918 -5.10917
LeftFoot  -13.8035 -0.660435 -33.3561
LeftToes  -3.91115e-011 -2.2622e-010 9.51032e-012
366
root  24.0211 30.8916 11.7642 -169.838 6.491 171.782
RightUpLeg  -41.7368 -4.90859 -42.0712
RightLeg  45.5521 -7.28085 -8.18934
RightFoot  -0.28925 -4.76353 46.6143
RightToes  -5.8209e-011 0 -3.6325e-017
Spine  33.931 -3.78941 24.7374
Spine1  -6.40037 6.63561 -15.4894
HEad  -33.8885 -8.01403 -12.9908
LeftShoulder1  2.00626 -5.46492 -15.5769
LeftArm  12.5214 20.3054 -56.665
LeftForeArm  35.3532 -75.0112 -43.9285
LeftHand  -1.36816 -1.54881 22.8615
RightShoulder  0.0463628 -6.10722 -11.5404
RightArm  -62.6463 43.6825 -3.46627
RightForeArm  7.6936 37.8618 8.45639
RightHand  -2.91729 8.19561 -24.8662
LeftUpLeg  -23.393 7.05199 29.0802
LeftLeg  42.1783 -2.02514 -1.5641
LeftFoot  -13.8477 -0.607246 -30.5774
LeftToes  -3.91115e-011 -2.2622e-010 9.51032e-012
367
root  24.6878 30.8171 11.9726 -166.448 7.51118 170.446
RightUpLeg  -46.6929 -3.42159 -43.7276
RightLeg  47.7788 -8.23474 -9.91021
RightFoot  -0.942684 -4.63303 48.0012
RightToes  -5.8209e-011 0 -3.6325e-017
Spine  34.3622 -4.17692 24.421
Spine1  -6.07609 6.31216 -14.6187
HEad  -35.187 -4.42083 -14.7184
LeftShoulder1  2.01265 -5.87678 -14.5821
LeftArm  13.3055 21.0616 -59.4322
LeftForeArm  42.3993 -76.6388 -51.4662
LeftHand  -1.36309 -1.66886 22.4053
RightShoulder  0.186502 -8.12295 -14.181
RightArm  -76.3682 46.4503 -15.6581
RightForeArm  14.3533 53.1366 13.7123
RightHand  -2.55333 8.21762 -21.842
LeftUpLeg  -28.6201 8.62507 25.9577
LeftLeg  44.9641 2.75114 3.32738
LeftFoot  -11.7295 -0.030587 -28.4974
LeftToes  -3.91115e-011 -2.2622e-010 9.51032e-012
368
root  25.1908 30.9309 12.1531 -164.813 6.42078 169.752
RightUpLeg  -47.4565 -2.39813 -44.571
RightLeg  48.4218 -9.56142 -11.6576
RightFoot  -2.06045 -4.30561 49.6609
RightToes  -5.8209e-011 0 -3.6325e-017
Spine  34.6969 -4.40106 22.8173
Spine1  -5.72588 5.25896 -11.7227
HEad  -34.7363 -1.50123 -15.8264
LeftShoulder1  2.09989 -6.3648 -14.3894
LeftArm  14.1974 21.1513 -60.5294
LeftForeArm  47.2574 -77.4315 -56.4162
LeftHand  -1.35661 -1.8875 21.6582
RightShoulder  0.27836 -9.71468 -14.7473
RightArm  -85.6238 49.161 -18.1572
RightForeArm  15.6703 57.3855 16.3442
RightHand  -2.18038 7.51426 -19.7642
LeftUpLeg  -32.4037 9.11383 23.9536
LeftLeg  46.2233 4.36562 5.27666
LeftFoot  -10.3318 0.30319 -26.6008
LeftToes  -3.91115e-011 -2.2622e-010 9.51032e-012
369
root  25.5329 31.1198 12.3323 -164.77 4.59383 170.071
RightUpLeg  -46.2509 -1.58751 -43.9922
RightLeg  48.3032 -10.0114 -12.1248
RightFoot  -2.57681 -4.1268 50.2806
RightToes  -5.8209e-011 0 -3.6325e-017
Spine  34.7181 -4.69145 21.2614
Spine1  -4.66149 4.262 -9.90608
HEad  -33.7202 -0.202319 -16.3661
LeftShoulder1  2.22791 -6.88931 -14.5642
LeftArm  14.8245 19.9493 -59.9644
LeftForeArm  45.9785 -77.2285 -55.0717
LeftHand  -1.36515 -2.22776 20.8523
RightShoulder  0.157888 -9.18683 -12.6214
RightArm  -84.282 50.5292 -9.66814
RightForeArm  10.8173 54.223 14.838
RightHand  -1.95345 6.5945 -19.0673
LeftUpLeg  -34.504 9.6 23.4401
LeftLeg  46.7083 1.76782 2.43575
LeftFoot  -11.3108 0.0723801 -25.9117
LeftToes  -3.91115e-011 -2.2622e-010 9.51032e-012
370
root  25.6899 31.3259 12.4123 -165.558 3.22302 171.101
RightUpLeg  -44.562 -1.26158 -42.4403
RightLeg  47.7222 -9.76027 -11.6066
RightFoot  -2.49372 -4.14131 50.0304
RightToes  -5.8209e-011 0 -3.6325e-017
Spine  34.4403 -4.92117 20.134
Spine1  -2.9432 3.78891 -10.3401
HEad  -33.6989 -0.443867 -16.3616
LeftShoulder1  2.28846 -6.99758 -14.9557
LeftArm  14.9822 17.4049 -58.6599
LeftForeArm  40.8956 -76.403 -50.3338
LeftHand  -1.37999 -2.46716 20.4513
RightShoulder  -0.0281529 -6.4005 -8.16032
RightArm  -73.1919 46.4685 4.6655
RightForeArm  5.14931 52.3191 14.2143
RightHand  -1.79643 6.03123 -18.4208
LeftUpLeg  -35.376 11.3778 23.4342
LeftLeg  47.3872 -3.05757 -3.13212
LeftFoot  -13.3652 -0.407179 -26.9959
LeftToes  -3.91115e-011 -2.2622e-010 9.51032e-012
371
root  25.6081 31.605 12.3554 -166.87 1.74873 172.287
RightUpLeg  -41.5642 -2.19651 -40.4262
RightLeg  46.1988 -9.83602 -11.0964
RightFoot  -2.02983 -4.2701 49.1666
RightToes  -5.8209e-011 0 -3.6325e-017
Spine  33.6942 -4.90724 18.9535
Spine1  -0.464449 3.47338 -10.8538
HEad  -34.4544 -1.24222 -15.5742
LeftShoulder1  2.26928 -6.61975 -15.6395
LeftArm  14.4314 13.9662 -57.9355
LeftForeArm  36.1747 -75.4734 -46.0662
LeftHand  -1.39572 -2.3207 21.0602
RightShoulder  0.00367791 -3.42849 -2.58314
RightArm  -58.9578 37.8118 17.7556
RightForeArm  0.358981 55.0458 16.2636
RightHand  -1.73981 5.56011 -18.5921
LeftUpLeg  -35.5999 13.6639 22.9759
LeftLeg  48.7051 -6.63354 -7.59519
LeftFoot  -14.5288 -0.716497 -28.3455
LeftToes  -3.91115e-011 -2.2622e-010 9.51032e-012
372
root  25.1972 32.0378 12.2022 -168.41 -0.697784 173.207
RightUpLeg  -36.273 -4.88536 -38.737
RightLeg  42.4246 -10.1106 -10.069
RightFoot  -1.00868 -4.63675 48.261
RightToes  -5.8209e-011 0 -3.6325e-017
Spine  31.8289 -4.72077 17.3253
Spine1  3.07417 2.73003 -9.80484
HEad  -34.7409 -1.73463 -14.0094
LeftShoulder1  2.20131 -5.95316 -16.5777
LeftArm  13.5462 10.4456 -58.4735
LeftForeArm  33.8736 -74.8317 -43.4315
LeftHand  -1.40581 -1.96492 22.19
RightShoulder  0.218685 -1.48956 2.93344
RightArm  -46.497 28.2443 27.9815
RightForeArm  -2.43932 59.1708 19.5222
RightHand  -1.61875 4.97126 -18.2695
LeftUpLeg  -35.576 14.2815 21.6975
LeftLeg  50.079 -7.24995 -8.74063
LeftFoot  -14.9062 -0.79795 -27.9703
LeftToes  -3.91115e-011 -2.2622e-010 9.51032e-012
373
root  24.3361 32.7059 11.9669 -170.602 -3.93448 174.641
RightUpLeg  -27.8889 -7.43454 -37.4325
RightLeg  34.819 -11.0787 -8.36436
RightFoot  1.97218 -5.87346 47.57
RightToes  -5.8209e-011 0 -3.6325e-017
Spine  29.5125 -5.2578 16.7415
Spine1  7.16227 1.48602 -8.64577
HEad  -34.2923 -1.78813 -12.1453
LeftShoulder1  2.08891 -5.16194 -17.4721
LeftArm  13.3163 7.80037 -59.9664
LeftForeArm  34.2099 -74.7173 -42.7789
LeftHand  -1.4197 -1.83525 22.7894
RightShoulder  0.48657 -0.400057 8.2985
RightArm  -37.8121 19.237 35.766
RightForeArm  -1.49865 63.2931 23.5562
RightHand  -1.43469 4.49281 -17.0171
LeftUpLeg  -34.3322 11.7201 20.7651
LeftLeg  50.4922 -5.84254 -7.09806
LeftFoot  -15.5711 -0.866365 -25.6296
LeftToes  -3.91115e-011 -2.2622e-010 9.51032e-012
374
root  23.1134 33.6467 11.6945 -174.678 -5.89995 178.412
RightUpLeg  -17.09 -4.30695 -34.6517
RightLeg  23.6042 -17.174 -8.01
RightFoot  9.74893 -8.61597 44.6518
RightToes  -5.8209e-011 0 -3.6325e-017
Spine  29.9524 -6.55372 18.46
Spine1  9.90166 0.763607 -8.3004
HEad  -33.7084 -1.4799 -10.5892
LeftShoulder1  1.98972 -4.53933 -18.1527
LeftArm  14.2937 6.67565 -61.3167
LeftForeArm  36.7304 -75.3482 -45.2003
LeftHand  -1.46553 -2.01242 22.959
RightShoulder  0.725053 0.0828458 13.3902
RightArm  -32.4436 10.6047 41.6696
RightForeArm  3.18203 67.9503 29.7893
RightHand  -1.33462 4.0642 -16.5556
LeftUpLeg  -29.5983 8.04385 22.6437
LeftLeg  49.1079 -4.05419 -4.57354
LeftFoot  -16.649 -0.983533 -23.0495
LeftToes  -3.91115e-011 -2.2622e-010 9.51032e-012
375
root  21.9381 34.5343 11.4801 -175.178 -2.44102 179.442
RightUpLeg  -14.0964 -1.9557 -32.8373
RightLeg  12.8859 -23.5281 -8.52078
RightFoot  22.3749 -11.1586 36.5187
RightToes  -5.8209e-011 0 -3.6325e-017
Spine  29.5547 -3.6886 14.0078
Spine1  11.0368 1.74668 -5.34931
HEad  -33.0496 -0.450262 -9.74498
LeftShoulder1  1.95905 -4.27183 -18.6469
LeftArm  16.0946 6.96856 -61.4451
LeftForeArm  41.7964 -76.6122 -51.6053
LeftHand  -1.53503 -2.20882 23.4157
RightShoulder  0.814677 -0.0250513 16.8987
RightArm  -28.644 2.89699 46.6488
RightForeArm  9.41889 71.9469 38.1738
RightHand  -1.29018 3.49995 -16.9885
LeftUpLeg  -25.2225 9.62181 21.2729
LeftLeg  45.5872 -2.04869 -1.82933
LeftFoot  -17.2654 -1.01279 -21.3352
LeftToes  -3.91115e-011 -2.2622e-010 9.51032e-012
